<?xml version="1.0" standalone="no"?>
<!DOCTYPE svg PUBLIC "-//W3C//DTD SVG 20010904//EN"
 "http://www.w3.org/TR/2001/REC-SVG-20010904/DTD/svg10.dtd">
<svg version="1.0" xmlns="http://www.w3.org/2000/svg"
 width="462.000000pt" height="462.000000pt" viewBox="0 0 462.000000 462.000000"
 preserveAspectRatio="xMidYMid meet">
<metadata>
Created by potrace 1.11, written by Peter Selinger 2001-2013
</metadata>
<g transform="translate(0.000000,462.000000) scale(0.100000,-0.100000)"
fill="#000000" stroke="none">
<path d="M1912 4580 c-166 -18 -333 -77 -568 -201 -51 -27 -101 -49 -111 -49
-24 0 -143 -102 -162 -138 -7 -15 -55 -70 -105 -122 -51 -52 -106 -113 -123
-135 -40 -53 -115 -180 -169 -287 -24 -47 -49 -90 -55 -94 -6 -3 -26 -39 -45
-78 -18 -39 -40 -82 -48 -96 -8 -14 -22 -51 -31 -83 -12 -45 -26 -68 -57 -97
-40 -36 -42 -41 -44 -105 -3 -64 -44 -195 -79 -249 -7 -11 -17 -39 -21 -61 -3
-22 -13 -53 -21 -69 -8 -16 -17 -68 -19 -115 -3 -47 -11 -106 -18 -131 -16
-55 -10 -130 11 -145 13 -10 14 -23 8 -71 -18 -146 3 -342 54 -484 55 -156 70
-181 164 -277 l89 -92 -11 -418 c-6 -230 -18 -533 -26 -673 -8 -140 -15 -261
-15 -267 0 -10 375 -13 1844 -13 l1844 0 -5 178 c-3 97 -9 181 -14 187 -12 12
-12 418 0 430 5 6 14 186 20 400 6 215 18 491 26 615 8 124 15 246 15 273 0
43 2 47 25 47 31 0 53 21 92 91 47 82 63 158 63 300 -1 295 -97 594 -285 881
-35 53 -66 111 -69 128 -2 17 -20 55 -39 83 -19 29 -53 84 -75 123 -23 40 -73
104 -112 144 -38 39 -70 80 -70 90 0 53 -416 350 -492 350 -16 0 -45 8 -66 19
-75 38 -300 109 -427 135 -71 15 -138 31 -148 37 -19 10 -151 30 -227 34 -199
10 -429 12 -498 5z"/>
</g>
</svg>
